<?xml version="1.0" standalone="no"?>
<!DOCTYPE svg PUBLIC "-//W3C//DTD SVG 20010904//EN"
 "http://www.w3.org/TR/2001/REC-SVG-20010904/DTD/svg10.dtd">
<svg version="1.0" xmlns="http://www.w3.org/2000/svg"
 width="200.000000pt" height="200.000000pt" viewBox="0 0 200.000000 200.000000"
 preserveAspectRatio="xMidYMid meet">
<metadata>
Created by potrace 1.11, written by Peter Selinger 2001-2013
</metadata>
<g transform="translate(0.000000,200.000000) scale(0.100000,-0.100000)"
fill="#000000" stroke="none">
<path d="M855 1622 c-81 -141 -163 -282 -181 -312 -40 -67 -309 -531 -336
-580 -11 -19 -29 -50 -40 -67 l-20 -33 141 0 140 0 -59 -101 c-33 -55 -60
-102 -60 -104 0 -1 -24 -42 -53 -91 -29 -49 -65 -110 -80 -136 l-28 -48 726 0
727 0 -20 33 c-11 17 -29 48 -40 67 -10 19 -64 113 -120 207 l-100 172 138 3
138 3 -160 275 c-88 151 -245 424 -350 605 -105 182 -196 338 -203 347 -9 14
-35 -24 -160 -240z m420 -407 c147 -253 270 -466 272 -472 4 -10 -15 -13 -74
-13 l-80 0 -143 248 c-79 136 -166 286 -194 334 -27 48 -51 86 -52 85 -5 -6
-251 -429 -277 -477 -17 -30 -38 -66 -47 -80 -10 -14 -27 -44 -39 -67 l-21
-43 -80 0 c-44 0 -80 3 -80 6 0 3 40 74 88 157 49 84 133 229 187 322 54 94
130 224 169 290 39 66 77 133 85 148 7 15 15 26 16 25 2 -2 123 -210 270 -463z
m-132 -252 l135 -233 -273 0 -273 0 136 235 c75 129 137 233 138 232 1 -1 63
-107 137 -234z m300 -517 c59 -101 107 -187 107 -190 0 -3 -245 -6 -545 -6
-300 0 -545 2 -545 5 0 5 49 92 105 187 6 9 32 55 59 102 l50 86 331 0 330 0
108 -184z"/>
</g>
</svg>
